<?xml version="1.0" encoding="UTF-8" standalone="no"?>
<svg width="79px" height="80px" viewBox="0 0 79 80" version="1.1" xmlns="http://www.w3.org/2000/svg" xmlns:xlink="http://www.w3.org/1999/xlink">
    <!-- Generator: Sketch 3.8.3 (29802) - http://www.bohemiancoding.com/sketch -->
    <title>expert-advice-icn</title>
    <desc>Created with Sketch.</desc>
    <defs></defs>
    <g id="Home-Page" stroke="none" stroke-width="1" fill="none" fill-rule="evenodd">
        <g id="Home-page--1200" transform="translate(-560.000000, -1484.000000)" fill="#FFFFFF">
            <g id="services_section" transform="translate(0.000000, 1211.000000)">
                <g id="card_expert_advice" transform="translate(439.000000, 252.000000)">
                    <g id="expert-advice-large-icn" transform="translate(121.000000, 21.000000)">
                        <g id="Group-4">
                            <path d="M49.9504094,10.7577778 L42.3761982,10.7577778 C41.3622064,10.7577778 40.5413559,9.93333333 40.5413559,8.91555556 C40.5413559,7.89777778 41.3622064,7.07333333 42.3761982,7.07333333 L49.9504094,7.07333333 C50.9622064,7.07333333 51.7852517,7.89777778 51.7852517,8.91555556 C51.7852517,9.93333333 50.9622064,10.7577778 49.9504094,10.7577778 L49.9504094,10.7577778 Z M23.8082969,18.3266667 L20.4766097,18.3266667 C19.4648127,18.3266667 18.6439622,17.5044444 18.6439622,16.4866667 C18.6439622,15.4666667 19.4648127,14.6444444 20.4766097,14.6444444 L23.8082969,14.6444444 C24.8200939,14.6444444 25.6409444,15.4666667 25.6409444,16.4866667 C25.6409444,17.5044444 24.8200939,18.3266667 23.8082969,18.3266667 L23.8082969,18.3266667 Z M35.306788,3.68444444 C34.1150185,3.68444444 33.1471172,4.65777778 33.1471172,5.85111111 L33.1471172,15.4866667 C33.1471172,16.68 34.1150185,17.6533333 35.306788,17.6533333 L50.9534272,17.6533333 C51.4692023,17.6533333 51.9630294,17.8711111 52.3098058,18.2533333 L55.312275,21.56 L55.312275,5.85111111 C55.312275,4.65777778 54.3443737,3.68444444 53.154799,3.68444444 L35.306788,3.68444444 Z M57.149312,28.1577778 C56.6423161,28.1577778 56.1462942,27.9488889 55.7929334,27.5577778 L50.1435507,21.3377778 L35.306788,21.3377778 C32.0914245,21.3377778 29.4774327,18.7133333 29.4774327,15.4866667 L29.4774327,5.85111111 C29.4774327,2.62444444 32.0914245,0 35.306788,0 L53.154799,0 C56.3679677,0 58.9841543,2.62444444 58.9841543,5.85111111 L58.9841543,26.3155556 C58.9841543,27.0755556 58.5166646,27.76 57.809943,28.0333333 C57.5948539,28.1177778 57.3709855,28.1577778 57.149312,28.1577778 L57.149312,28.1577778 Z M13.670574,31.9755556 C13.3501351,31.9755556 13.0296961,31.8911111 12.742179,31.7222222 C12.1803134,31.3911111 11.8357318,30.7866667 11.8357318,30.1333333 L11.8357318,13.5311111 C11.8357318,10.3044444 14.4497235,7.67777778 17.6650871,7.67777778 L24.1748264,7.67777778 C25.1866234,7.67777778 26.0096687,8.50222222 26.0096687,9.52 C26.0096687,10.5377778 25.1866234,11.3622222 24.1748264,11.3622222 L17.6650871,11.3622222 C16.4733175,11.3622222 15.5054163,12.3355556 15.5054163,13.5311111 L15.5054163,26.9866667 L18.0316165,25.5666667 C18.305965,25.4111111 18.61543,25.3311111 18.9292846,25.3311111 L34.852467,25.3311111 C35.8664588,25.3311111 36.6873093,26.1555556 36.6873093,27.1733333 C36.6873093,28.1911111 35.8664588,29.0155556 34.852467,29.0155556 L19.4077482,29.0155556 L14.5660473,31.74 C14.2873093,31.8955556 13.9778443,31.9755556 13.670574,31.9755556 L13.670574,31.9755556 Z M53.8790788,37.02 C52.3734547,38.0622222 51.3858004,39.8066667 51.3858004,41.7777778 C51.3858004,44.9644444 53.9668703,47.5555556 57.1383381,47.5555556 C60.3120006,47.5555556 62.8930706,44.9644444 62.8930706,41.7777778 C62.8930706,39.4066667 61.464264,37.3666667 59.4253065,36.4755556 C58.6549362,37.4711111 57.6914245,38.3066667 56.5874464,38.9288889 C55.7051419,39.4266667 54.5858004,39.1111111 54.0897784,38.2244444 C53.876884,37.8444444 53.8132352,37.4177778 53.8790788,37.02 L53.8790788,37.02 Z M57.1383381,51.24 C51.9432764,51.24 47.7139211,46.9955556 47.7139211,41.7777778 C47.7139211,36.56 51.9432764,32.3155556 57.1383381,32.3155556 C57.7594629,32.3155556 58.3696138,32.3755556 58.955622,32.4933333 C58.9951282,32.4977778 59.0346344,32.5066667 59.0719458,32.5155556 C63.3451968,33.4133333 66.5627551,37.2244444 66.5627551,41.7777778 C66.5627551,46.9955556 62.3355946,51.24 57.1383381,51.24 L57.1383381,51.24 Z M21.8790788,36.6577778 C22.7284615,38.5844444 24.6050047,39.9177778 26.7997921,40.0088889 C25.9460198,38.1 24.0738662,36.7466667 21.8790788,36.6577778 L21.8790788,36.6577778 Z M18.3476659,37.7266667 C16.9298333,38.7555556 16.0058278,40.4311111 16.0058278,42.3177778 C16.0058278,45.44 18.5364176,47.9822222 21.6486261,47.9822222 C24.2845658,47.9822222 26.5034958,46.1577778 27.1202311,43.6977778 C23.1323024,43.72 19.7062393,41.2822222 18.3476659,37.7266667 L18.3476659,37.7266667 Z M21.6486261,51.6666667 C16.5128237,51.6666667 12.3361433,47.4733333 12.3361433,42.3177778 C12.3361433,38.0711111 15.1696138,34.4755556 19.0390239,33.34 C19.0565822,33.3355556 19.0763353,33.3288889 19.0960884,33.3244444 C19.7084341,33.1488889 20.3383381,33.0377778 20.9770212,32.9911111 L20.9858004,32.9911111 L20.9967743,32.9911111 C21.0011639,32.9888889 21.0033587,32.9888889 21.0077482,32.9888889 L21.0187222,32.9888889 C21.0231117,32.9888889 21.0253065,32.9888889 21.0296961,32.9866667 L21.0384753,32.9866667 L21.0604231,32.9866667 C21.0911502,32.9844444 21.1196824,32.9822222 21.1504094,32.98 L21.1526042,32.98 L21.1811364,32.98 C21.1833312,32.98 21.1943052,32.9777778 21.2008895,32.9777778 L21.2096687,32.9777778 L21.2228374,32.9777778 C21.2250322,32.9777778 21.227227,32.9777778 21.2316165,32.9755556 L21.2382009,32.9755556 L21.2491748,32.9755556 L21.2601488,32.9755556 L21.2689279,32.9755556 C21.2755123,32.9755556 21.2820967,32.9755556 21.288681,32.9733333 C21.40281,32.9688889 21.5169389,32.9666667 21.6310678,32.9666667 L21.639847,32.9666667 L21.6749636,32.9666667 L21.6903271,32.9666667 C21.6947167,32.9666667 21.701301,32.9688889 21.7056906,32.9666667 C21.7100802,32.9666667 21.7166646,32.9688889 21.7210541,32.9666667 L21.7254437,32.9666667 C26.2906015,33.0044444 30.094168,36.3022222 30.8316165,40.7644444 C30.9150185,41.2688889 30.9589142,41.7866667 30.9589142,42.3177778 C30.961109,47.4733333 26.7822338,51.6666667 21.6486261,51.6666667 L21.6486261,51.6666667 Z M65.4851145,66.5866667 C64.4711227,66.5866667 63.6480774,65.7622222 63.6480774,64.7444444 L63.6480774,64.5155556 C63.6480774,63.4977778 64.4711227,62.6711111 65.4851145,62.6711111 C66.4969115,62.6711111 67.3199567,63.4977778 67.3199567,64.5155556 L67.3199567,64.7444444 C67.3199567,65.7622222 66.4969115,66.5866667 65.4851145,66.5866667 L65.4851145,66.5866667 Z M29.0494492,79.9977778 L9.53339981,79.9977778 C8.51940804,79.9977778 7.69855756,79.1733333 7.69855756,78.1555556 C7.69855756,77.1377778 8.51940804,76.3133333 9.53339981,76.3133333 L29.0494492,76.3133333 C30.063441,76.3133333 30.8842914,77.1377778 30.8842914,78.1555556 C30.8842914,79.1733333 30.063441,79.9977778 29.0494492,79.9977778 L29.0494492,79.9977778 Z M19.2189965,58.0577778 L21.6486261,61.3977778 L24.076061,58.0577778 L19.2189965,58.0577778 Z M1.83408568,80 C1.60582779,80 1.37318033,79.9555556 1.14711723,79.8644444 C0.20774823,79.48 -0.246572758,78.4066667 0.135320246,77.4644444 L4.71584151,66.1266667 C6.75699377,61.08 10.4157043,54.3711111 18.6088456,54.3711111 L24.6862119,54.3711111 C29.1021241,54.3711111 32.736692,56.3422222 35.4911502,60.2333333 C35.5372407,60.2977778 35.7457455,60.5822222 35.998146,60.9288889 C36.876061,62.1288889 37.1087084,62.4488889 37.1833312,62.5666667 C37.7451968,63.4155556 37.5125493,64.5577778 36.6675562,65.12 C35.8247578,65.68 34.6922475,65.4511111 34.130382,64.6111111 C34.0316165,64.4688889 33.3863491,63.5844444 33.0395726,63.1088889 C32.7652242,62.7355556 32.5413559,62.4288889 32.4974602,62.3666667 C31.2266783,60.5711111 29.8088456,59.3622222 28.1583655,58.6911111 L23.1301076,65.6088889 C22.785526,66.0844444 22.2346344,66.3666667 21.6486261,66.3666667 C21.0626179,66.3666667 20.5117263,66.0844444 20.1649499,65.6088889 L15.1388868,58.6933333 C12.2746892,59.86 10.0733175,62.6733333 8.11776195,67.5133333 L3.53724069,78.8488889 C3.24752875,79.5644444 2.5605603,80 1.83408568,80 L1.83408568,80 Z M56.5084341,60.54 L57.7704368,60.54 L58.3564451,57.7266667 L55.9224259,57.7266667 L56.5084341,60.54 Z M55.5975973,73.8266667 L57.1383381,75.0711111 L58.6812736,73.8266667 L57.6168017,64.2244444 L56.6598744,64.2244444 L55.5975973,73.8266667 Z M77.1767469,80 C76.4502722,80 75.7589142,79.56 75.4735919,78.84 L70.8952654,67.3333333 C68.5424533,61.5133333 65.8362805,58.5755556 62.0722201,57.8866667 L61.1152928,62.4711111 L62.4409444,74.4266667 C62.5089828,75.0533333 62.2543875,75.6711111 61.7649499,76.0666667 L58.8129608,78.4488889 C58.4859375,78.7111111 58.0820967,78.8555556 57.6628923,78.8555556 L56.6137839,78.8555556 C56.1967743,78.8555556 55.7907386,78.7111111 55.4659101,78.4488889 L52.5117263,76.0666667 C52.0222887,75.6711111 51.7676934,75.0533333 51.8379266,74.4266667 L53.1613833,62.4711111 L52.204456,57.8866667 C48.4403957,58.5755556 45.7364176,61.5155556 43.379216,67.3422222 L38.7306563,78.8488889 C38.3487633,79.7911111 37.2777071,80.2466667 36.3405329,79.8644444 C35.3989691,79.48 34.9468429,78.4066667 35.3287359,77.4644444 L39.9794903,65.9555556 C41.9964999,60.9666667 45.5740034,54.3755556 53.4510953,54.0533333 C53.5191337,54.0444444 53.5915617,54.04 53.6617949,54.04 L60.6148813,54.04 C60.6873093,54.04 60.7575425,54.0444444 60.8277757,54.0533333 C68.7048676,54.3755556 72.282371,60.9666667 74.2993806,65.9555556 L78.8820967,77.4733333 C79.2574053,78.4177778 78.7986947,79.4888889 77.8571309,79.8666667 C77.6354574,79.9577778 77.4050047,80 77.1767469,80 L77.1767469,80 Z" id="icon_expert_advice"></path>
                        </g>
                    </g>
                </g>
            </g>
        </g>
    </g>
</svg>