<?xml version="1.0" encoding="UTF-8" standalone="no"?>
<svg width="35px" height="36px" viewBox="0 0 35 36" version="1.1" xmlns="http://www.w3.org/2000/svg" xmlns:xlink="http://www.w3.org/1999/xlink">
    <!-- Generator: Sketch 3.8.3 (29802) - http://www.bohemiancoding.com/sketch -->
    <title>logo_small</title>
    <desc>Created with Sketch.</desc>
    <defs></defs>
    <g id="Home-Page" stroke="none" stroke-width="1" fill="none" fill-rule="evenodd">
        <g id="Home-page---320" transform="translate(-18.000000, -14.000000)">
            <g id="logo_small" transform="translate(17.000000, 14.000000)">
                <path d="M26.430932,8.44194793 C27.366633,10.8270966 27.9935781,12.9372311 28.3767112,14.7850501 C28.7547649,16.6455676 28.8864669,18.2477606 28.8295048,19.6329899 C28.7620212,21.0189449 28.5044222,22.1850337 28.1009714,23.1631841 C27.8985204,23.6537105 27.6623276,24.0985222 27.3963839,24.5008846 C27.1246351,24.8996187 26.8278521,25.2573547 26.5093001,25.5737298 C26.1900226,25.8886536 25.8482504,26.1676586 25.4934169,26.4096565 C25.1324156,26.650566 24.7587157,26.8562823 24.3763082,27.0300709 C23.5955294,27.3870813 22.7712128,27.5971514 21.9748329,27.713978 C21.1773646,27.8315302 20.4049305,27.8518479 19.7228375,27.8242739 C19.0487264,27.7992396 18.4584257,27.7299419 18.0295779,27.6646351 C17.5941994,27.5942489 17.3242647,27.5285793 17.2778243,27.5209602 C19.2395674,28.8481391 21.0819441,29.6993041 22.7708499,30.1510093 C24.4626583,30.599812 26.0060751,30.6422614 27.3702612,30.3610794 C28.7333587,30.0780834 29.9146858,29.4681906 30.8902965,28.6036015 C31.8669956,27.7419148 32.6383412,26.6244433 33.1669633,25.3284666 C33.4633835,24.6017472 33.6912316,23.8216941 33.8374462,22.9970146 C33.9807583,22.1730607 34.0475164,21.3059319 34.0359063,20.4105034 C34.0134117,19.508907 33.9114606,18.5851789 33.7246106,17.6367794 C33.5337697,16.6927337 33.2536762,15.7334497 32.8799763,14.7687234 C32.0901271,12.72317 31.0778721,10.8198403 30.0024871,9.11243085 C28.92166,7.40719832 27.7831451,5.89607205 26.7273522,4.63419998 C25.6697452,3.36906257 24.7003024,2.35426781 23.97576,1.63262792 C23.2486779,0.910625209 22.7683102,0.481777369 22.6772436,0.407763021 C24.2663752,3.38829179 25.4981335,6.05498521 26.430932,8.44194793" id="Fill-41" fill="#CC0000"></path>
                <path d="M17.9174679,6.6240975 C17.1443082,6.70319126 16.3479284,6.87697985 15.5533626,7.14074667 C14.7613365,7.40306223 13.9627797,7.75717009 13.179824,8.19363705 C12.4015849,8.63881159 11.6291509,9.16525678 10.8904586,9.77877767 C10.1470498,10.3955639 9.43266624,11.0965233 8.76109488,11.8845584 C7.3345046,13.5506069 6.1401162,15.3461805 5.14963008,17.10257 C4.15914395,18.8575082 3.36929475,20.5805187 2.75976483,22.1090601 C2.14624393,23.6408669 1.71122823,24.9723995 1.41879899,25.952364 C1.1274582,26.9337797 0.985234555,27.5632645 0.956934951,27.6753745 C2.82543442,24.8664574 4.59016868,22.5150506 6.24968646,20.5598382 C7.90630172,18.608254 9.46205429,17.0546783 10.9122276,15.8403351 C12.3671175,14.6241778 13.7160652,13.7494298 14.9648759,13.1507843 C16.2220314,12.545971 17.368891,12.2208883 18.4196045,12.109504 C18.9485894,12.0547189 19.4518144,12.0554445 19.9289167,12.1026105 C20.4110984,12.1443343 20.8649805,12.2397547 21.2956424,12.3663773 C21.7259415,12.4998934 22.1290294,12.6682398 22.5165163,12.8699651 C22.8938444,13.0709649 23.2541201,13.3017155 23.5860962,13.5535094 C24.2739943,14.0756008 24.8530477,14.7018203 25.3283359,15.3461805 C25.8123317,15.9930804 26.1958276,16.6657402 26.4973272,17.2763586 C26.7944731,17.8840744 27.0114367,18.4406333 27.160191,18.8469866 C27.3024147,19.2595077 27.3749778,19.5279911 27.3894904,19.5835019 C27.6271345,17.2197594 27.4990606,15.1923467 27.0930702,13.487477 C26.68454,11.7887752 25.9944651,10.411165 25.1044788,9.34702731 C24.2097759,8.2770846 23.1093567,7.52315413 21.8863059,7.07290018 C20.820717,6.68432486 19.6564423,6.51888102 18.4486297,6.58201091 C18.2723014,6.59108129 18.0956103,6.60450546 17.9174679,6.6240975" id="Fill-43" fill="#FF6600"></path>
                <path d="M10.4216648,17.8894804 C9.15580179,19.0925763 8.30318552,20.3831108 7.82644605,21.6852554 C7.35369754,22.9975588 7.24956951,24.3232864 7.47161255,25.6101927 C7.69220434,26.8934709 8.24041845,28.1350253 9.0621954,29.2673723 C9.52405945,29.8997596 10.0715479,30.5045729 10.694502,31.0611318 C11.3203586,31.6191419 12.0231321,32.1270835 12.7970175,32.5867707 C13.5690887,33.0435553 14.4148115,33.4422895 15.3167706,33.779345 C16.2190926,34.1164005 17.1791022,34.3812558 18.2022418,34.5673801 C20.358091,34.9719193 22.5084981,35.1130545 24.5213981,35.0894715 C26.540466,35.0709679 28.4274691,34.8891974 30.0597757,34.6573583 C31.6873657,34.4229796 33.0624362,34.1316388 34.0540108,33.8947203 C35.0492135,33.6563506 35.6659997,33.4705891 35.7744815,33.4364844 C32.4068287,33.2166183 29.4901554,32.8679526 26.9714907,32.4064514 C24.447021,31.9482155 22.3270904,31.3778696 20.5514717,30.7269788 C18.7711363,30.0764507 17.3365641,29.3486429 16.190793,28.5656872 C15.0471988,27.7823687 14.1847865,26.9489817 13.5654605,26.0941885 C13.2530765,25.664615 13.0038223,25.2259712 12.79992,24.7895042 C12.6050881,24.3479578 12.4588735,23.9125793 12.3525686,23.4724842 C12.2509802,23.0374685 12.1940182,22.60209 12.1798684,22.1667115 C12.1617276,21.7364124 12.1795056,21.312644 12.2321138,20.8968575 C12.3420469,20.0409759 12.5978318,19.2275437 12.9131184,18.4870374 C13.2327588,17.7465311 13.6249623,17.0807648 14.0012019,16.5151355 C14.380344,15.9516831 14.7486017,15.4894563 15.0337746,15.1592942 C15.3207616,14.8276809 15.5148679,14.6281324 15.5533263,14.5900368 C13.3891322,15.5652847 11.6947842,16.6874728 10.4216648,17.8894804" id="Fill-45" fill="#FFCC33"></path>
            </g>
        </g>
    </g>
</svg>