<?xml version="1.0" encoding="UTF-8" standalone="no"?>
<svg width="80px" height="80px" viewBox="0 0 80 80" version="1.1" xmlns="http://www.w3.org/2000/svg" xmlns:xlink="http://www.w3.org/1999/xlink">
    <!-- Generator: Sketch 3.8.3 (29802) - http://www.bohemiancoding.com/sketch -->
    <title>software-creation-icn</title>
    <desc>Created with Sketch.</desc>
    <defs>
        <polygon id="path-1" points="0 80 80 80 80 0 0 0"></polygon>
    </defs>
    <g id="Home-Page" stroke="none" stroke-width="1" fill="none" fill-rule="evenodd">
        <g id="Home-page--1200" transform="translate(-220.000000, -1484.000000)">
            <g id="services_section" transform="translate(0.000000, 1211.000000)">
                <g id="card_software_creation" transform="translate(100.000000, 252.000000)">
                    <g id="software-creation-large-icn" transform="translate(120.000000, 21.000000)">
                        <g id="icon_software_creation">
                            <mask id="mask-2" fill="white">
                                <use xlink:href="#path-1"></use>
                            </mask>
                            <g id="Clip-2"></g>
                            <path d="M3.264,42.6719358 L76.734,42.6719358 L76.734,13.0766286 L3.264,13.0766286 L3.264,42.6719358 Z M78.368,9.85192961 L41.632,9.85192961 L41.632,0 L38.368,0 L38.368,9.85192961 L1.632,9.85192961 C0.732,9.85192961 0,10.5731399 0,11.4642791 L0,44.2842853 C0,45.1754245 0.732,45.8986107 1.632,45.8986107 L78.368,45.8986107 C79.268,45.8986107 80,45.1754245 80,44.2842853 L80,11.4642791 C80,10.5731399 79.268,9.85192961 78.368,9.85192961 L78.368,9.85192961 Z" id="Fill-1" fill="#FFFFFF" mask="url(#mask-2)"></path>
                            <path d="M9.46389873,20.5963816 L12.7712405,20.5963816 C13.6846582,20.5963816 14.4238987,19.8731954 14.4238987,18.9840321 C14.4238987,18.0928929 13.6846582,17.3697067 12.7712405,17.3697067 L9.46389873,17.3697067 C8.55048101,17.3697067 7.81124051,18.0928929 7.81124051,18.9840321 C7.81124051,19.8731954 8.55048101,20.5963816 9.46389873,20.5963816" id="Fill-3" fill="#FFFFFF" mask="url(#mask-2)"></path>
                            <path d="M19.2593418,20.5963816 L22.5666835,20.5963816 C23.4801013,20.5963816 24.2213671,19.8731954 24.2213671,18.9840321 C24.2213671,18.0928929 23.4801013,17.3697067 22.5666835,17.3697067 L19.2593418,17.3697067 C18.3459241,17.3697067 17.6066835,18.0928929 17.6066835,18.9840321 C17.6066835,19.8731954 18.3459241,20.5963816 19.2593418,20.5963816" id="Fill-4" fill="#FFFFFF" mask="url(#mask-2)"></path>
                            <path d="M29.0557975,20.5963816 L32.3631392,20.5963816 C33.276557,20.5963816 34.0178228,19.8731954 34.0178228,18.9840321 C34.0178228,18.0928929 33.276557,17.3697067 32.3631392,17.3697067 L29.0557975,17.3697067 C28.1423797,17.3697067 27.4031392,18.0928929 27.4031392,18.9840321 C27.4031392,19.8731954 28.1423797,20.5963816 29.0557975,20.5963816" id="Fill-5" fill="#FFFFFF" mask="url(#mask-2)"></path>
                            <path d="M38.8522532,20.5963816 L42.1595949,20.5963816 C43.0730127,20.5963816 43.8142785,19.8731954 43.8142785,18.9840321 C43.8142785,18.0928929 43.0730127,17.3697067 42.1595949,17.3697067 L38.8522532,17.3697067 C37.9388354,17.3697067 37.1995949,18.0928929 37.1995949,18.9840321 C37.1995949,19.8731954 37.9388354,20.5963816 38.8522532,20.5963816" id="Fill-6" fill="#FFFFFF" mask="url(#mask-2)"></path>
                            <path d="M48.6485063,20.5963816 L51.9558481,20.5963816 C52.8692658,20.5963816 53.6105316,19.8731954 53.6105316,18.9840321 C53.6105316,18.0928929 52.8692658,17.3697067 51.9558481,17.3697067 L48.6485063,17.3697067 C47.7350886,17.3697067 46.9958481,18.0928929 46.9958481,18.9840321 C46.9958481,19.8731954 47.7350886,20.5963816 48.6485063,20.5963816" id="Fill-7" fill="#FFFFFF" mask="url(#mask-2)"></path>
                            <path d="M58.444962,20.5963816 L61.7523038,20.5963816 C62.6657215,20.5963816 63.4069873,19.8731954 63.4069873,18.9840321 C63.4069873,18.0928929 62.6657215,17.3697067 61.7523038,17.3697067 L58.444962,17.3697067 C57.5315443,17.3697067 56.7923038,18.0928929 56.7923038,18.9840321 C56.7923038,19.8731954 57.5315443,20.5963816 58.444962,20.5963816" id="Fill-8" fill="#FFFFFF" mask="url(#mask-2)"></path>
                            <path d="M68.2414177,20.5963816 L71.5487595,20.5963816 C72.4621772,20.5963816 73.2014177,19.8731954 73.2014177,18.9840321 C73.2014177,18.0928929 72.4621772,17.3697067 71.5487595,17.3697067 L68.2414177,17.3697067 C67.328,17.3697067 66.5887595,18.0928929 66.5887595,18.9840321 C66.5887595,19.8731954 67.328,20.5963816 68.2414177,20.5963816" id="Fill-9" fill="#FFFFFF" mask="url(#mask-2)"></path>
                            <path d="M9.46389873,29.4876196 L12.7712405,29.4876196 C13.6846582,29.4876196 14.4238987,28.7644335 14.4238987,27.8752701 C14.4238987,26.9841309 13.6846582,26.2609447 12.7712405,26.2609447 L9.46389873,26.2609447 C8.55048101,26.2609447 7.81124051,26.9841309 7.81124051,27.8752701 C7.81124051,28.7644335 8.55048101,29.4876196 9.46389873,29.4876196" id="Fill-10" fill="#FFFFFF" mask="url(#mask-2)"></path>
                            <path d="M19.2593418,29.4876196 L22.5666835,29.4876196 C23.4801013,29.4876196 24.2213671,28.7644335 24.2213671,27.8752701 C24.2213671,26.9841309 23.4801013,26.2609447 22.5666835,26.2609447 L19.2593418,26.2609447 C18.3459241,26.2609447 17.6066835,26.9841309 17.6066835,27.8752701 C17.6066835,28.7644335 18.3459241,29.4876196 19.2593418,29.4876196" id="Fill-11" fill="#FFFFFF" mask="url(#mask-2)"></path>
                            <path d="M29.0557975,29.4876196 L32.3631392,29.4876196 C33.276557,29.4876196 34.0178228,28.7644335 34.0178228,27.8752701 C34.0178228,26.9841309 33.276557,26.2609447 32.3631392,26.2609447 L29.0557975,26.2609447 C28.1423797,26.2609447 27.4031392,26.9841309 27.4031392,27.8752701 C27.4031392,28.7644335 28.1423797,29.4876196 29.0557975,29.4876196" id="Fill-12" fill="#FFFFFF" mask="url(#mask-2)"></path>
                            <path d="M38.8522532,29.4876196 L42.1595949,29.4876196 C43.0730127,29.4876196 43.8142785,28.7644335 43.8142785,27.8752701 C43.8142785,26.9841309 43.0730127,26.2609447 42.1595949,26.2609447 L38.8522532,26.2609447 C37.9388354,26.2609447 37.1995949,26.9841309 37.1995949,27.8752701 C37.1995949,28.7644335 37.9388354,29.4876196 38.8522532,29.4876196" id="Fill-13" fill="#FFFFFF" mask="url(#mask-2)"></path>
                            <path d="M48.6485063,29.4876196 L51.9558481,29.4876196 C52.8692658,29.4876196 53.6105316,28.7644335 53.6105316,27.8752701 C53.6105316,26.9841309 52.8692658,26.2609447 51.9558481,26.2609447 L48.6485063,26.2609447 C47.7350886,26.2609447 46.9958481,26.9841309 46.9958481,27.8752701 C46.9958481,28.7644335 47.7350886,29.4876196 48.6485063,29.4876196" id="Fill-14" fill="#FFFFFF" mask="url(#mask-2)"></path>
                            <path d="M58.444962,29.4876196 L61.7523038,29.4876196 C62.6657215,29.4876196 63.4069873,28.7644335 63.4069873,27.8752701 C63.4069873,26.9841309 62.6657215,26.2609447 61.7523038,26.2609447 L58.444962,26.2609447 C57.5315443,26.2609447 56.7923038,26.9841309 56.7923038,27.8752701 C56.7923038,28.7644335 57.5315443,29.4876196 58.444962,29.4876196" id="Fill-15" fill="#FFFFFF" mask="url(#mask-2)"></path>
                            <path d="M68.2414177,29.4876196 L71.5487595,29.4876196 C72.4621772,29.4876196 73.2014177,28.7644335 73.2014177,27.8752701 C73.2014177,26.9841309 72.4621772,26.2609447 71.5487595,26.2609447 L68.2414177,26.2609447 C67.328,26.2609447 66.5887595,26.9841309 66.5887595,27.8752701 C66.5887595,28.7644335 67.328,29.4876196 68.2414177,29.4876196" id="Fill-16" fill="#FFFFFF" mask="url(#mask-2)"></path>
                            <path d="M9.46389873,38.3788577 L22.5676962,38.3788577 C23.4811139,38.3788577 24.2203544,37.6556715 24.2203544,36.7665082 C24.2203544,35.8753689 23.4811139,35.1521828 22.5676962,35.1521828 L9.46389873,35.1521828 C8.55048101,35.1521828 7.81124051,35.8753689 7.81124051,36.7665082 C7.81124051,37.6556715 8.55048101,38.3788577 9.46389873,38.3788577" id="Fill-17" fill="#FFFFFF" mask="url(#mask-2)"></path>
                            <path d="M29.0557975,38.3788577 L51.9560506,38.3788577 C52.8694684,38.3788577 53.6107342,37.6556715 53.6107342,36.7665082 C53.6107342,35.8753689 52.8694684,35.1521828 51.9560506,35.1521828 L29.0557975,35.1521828 C28.1423797,35.1521828 27.4031392,35.8753689 27.4031392,36.7665082 C27.4031392,37.6556715 28.1423797,38.3788577 29.0557975,38.3788577" id="Fill-18" fill="#FFFFFF" mask="url(#mask-2)"></path>
                            <path d="M58.444962,38.3788577 L71.5487595,38.3788577 C72.4621772,38.3788577 73.2014177,37.6556715 73.2014177,36.7665082 C73.2014177,35.8753689 72.4621772,35.1521828 71.5487595,35.1521828 L58.444962,35.1521828 C57.5315443,35.1521828 56.7923038,35.8753689 56.7923038,36.7665082 C56.7923038,37.6556715 57.5315443,38.3788577 58.444962,38.3788577" id="Fill-19" fill="#FFFFFF" mask="url(#mask-2)"></path>
                            <path d="M76.8931646,76.4512504 C76.8931646,76.6290831 76.7412658,76.7733251 76.5549367,76.7733251 L55.6455696,76.7733251 C55.4207595,76.7733251 55.3073418,76.6448904 55.3073418,76.5915406 L55.3073418,64.4633529 C55.3073418,64.4100031 55.4207595,64.2815684 55.6455696,64.2815684 L57.9746835,64.2815684 C58.1812658,64.2815684 58.3129114,64.4020994 58.3129114,64.4633529 L58.3129114,68.2986107 C58.3129114,69.1897499 59.0541772,69.9109602 59.9675949,69.9109602 C60.8789873,69.9109602 61.6202532,69.1897499 61.6202532,68.2986107 L61.6202532,54.3347947 C61.6202532,54.1589379 61.7721519,54.01272 61.958481,54.01272 L64.3929114,54.01272 L64.3929114,59.5769065 C64.3929114,60.4680457 65.1341772,61.1892559 66.0455696,61.1892559 C66.9589873,61.1892559 67.7002532,60.4680457 67.7002532,59.5769065 L67.7002532,54.01272 L70.8131646,54.01272 L70.8131646,59.5769065 C70.8131646,60.4680457 71.5544304,61.1892559 72.4658228,61.1892559 C73.3792405,61.1892559 74.1205063,60.4680457 74.1205063,59.5769065 L74.1205063,54.01272 L76.5549367,54.01272 C76.7412658,54.01272 76.8931646,54.1589379 76.8931646,54.3347947 L76.8931646,76.4512504 Z M76.5549367,50.788021 L61.958481,50.788021 C59.9493671,50.788021 58.3129114,52.3806113 58.3129114,54.3367706 L58.3129114,61.0687249 C58.201519,61.0588453 58.0881013,61.0548935 57.9746835,61.0548935 L55.6455696,61.0548935 C53.6344304,61.0548935 52,62.5842544 52,64.4633529 L52,76.5915406 C52,78.4706391 53.6344304,80 55.6455696,80 L76.5549367,80 C78.5640506,80 80.2005063,78.4093856 80.2005063,76.4512504 L80.2005063,54.3367706 C80.2005063,52.3806113 78.5640506,50.788021 76.5549367,50.788021 L76.5549367,50.788021 Z" id="Fill-20" fill="#FFFFFF" mask="url(#mask-2)"></path>
                            <path d="M18.5802532,68.2986107 C18.5802532,69.1897499 19.321519,69.9109602 20.2329114,69.9109602 C21.1463291,69.9109602 21.8875949,69.1897499 21.8875949,68.2986107 L21.8875949,64.4633529 C21.8875949,64.4001235 22.0192405,64.2795925 22.2258228,64.2795925 L24.5549367,64.2795925 C24.761519,64.2795925 24.8931646,64.4001235 24.8931646,64.4633529 L24.8931646,76.5895647 C24.8931646,76.6527941 24.761519,76.7733251 24.5549367,76.7733251 L3.64556962,76.7733251 C3.45924051,76.7733251 3.30734177,76.6290831 3.30734177,76.4512504 L3.30734177,54.3367706 C3.30734177,54.1589379 3.45924051,54.01272 3.64556962,54.01272 L6.08,54.01272 L6.08,59.5769065 C6.08,60.4680457 6.82126582,61.1892559 7.73265823,61.1892559 C8.64607595,61.1892559 9.38734177,60.4680457 9.38734177,59.5769065 L9.38734177,54.01272 L12.5002532,54.01272 L12.5002532,59.5769065 C12.5002532,60.4680457 13.241519,61.1892559 14.1529114,61.1892559 C15.0663291,61.1892559 15.8075949,60.4680457 15.8075949,59.5769065 L15.8075949,54.01272 L18.2420253,54.01272 C18.4283544,54.01272 18.5802532,54.1589379 18.5802532,54.3367706 L18.5802532,68.2986107 Z M24.5549367,61.0548935 L22.2258228,61.0548935 C22.1124051,61.0548935 21.9989873,61.0588453 21.8875949,61.0687249 L21.8875949,54.3367706 C21.8875949,52.3806113 20.2511392,50.788021 18.2420253,50.788021 L3.64556962,50.788021 C1.6364557,50.788021 0,52.3806113 0,54.3367706 L0,76.4512504 C0,78.4074097 1.6364557,80 3.64556962,80 L24.5549367,80 C26.5660759,80 28.2005063,78.4706391 28.2005063,76.5895647 L28.2005063,64.4633529 C28.2005063,62.5842544 26.5660759,61.0548935 24.5549367,61.0548935 L24.5549367,61.0548935 Z" id="Fill-21" fill="#FFFFFF" mask="url(#mask-2)"></path>
                        </g>
                    </g>
                </g>
            </g>
        </g>
    </g>
</svg>