<?xml version="1.0" encoding="UTF-8" standalone="no"?>
<svg width="80px" height="79px" viewBox="0 0 80 79" version="1.1" xmlns="http://www.w3.org/2000/svg" xmlns:xlink="http://www.w3.org/1999/xlink">
    <!-- Generator: Sketch 3.8.3 (29802) - http://www.bohemiancoding.com/sketch -->
    <title>training-&amp;-coaching-icn</title>
    <desc>Created with Sketch.</desc>
    <defs>
        <polygon id="path-1" points="79.7637731 78.8653171 79.7637731 0.125236167 0.00043745728 0.125236167 0.00043745728 78.8653171"></polygon>
        <polygon id="path-3" points="0 78.8754116 79.7637731 78.8754116 79.7637731 0.134251012 0 0.134251012"></polygon>
    </defs>
    <g id="Home-Page" stroke="none" stroke-width="1" fill="none" fill-rule="evenodd">
        <g id="Home-page--1200" transform="translate(-899.000000, -1484.000000)">
            <g id="services_section" transform="translate(0.000000, 1211.000000)">
                <g id="card_training_&amp;_coaching" transform="translate(779.000000, 252.000000)">
                    <g id="training-&amp;-coaching-large-icn" transform="translate(120.000000, 21.000000)">
                        <g id="icon_training&amp;coaching">
                            <path d="M10.5210663,13.1616194 C9.11464115,13.1616194 7.96850308,12.0301754 7.96850308,10.6504184 C7.96850308,9.26202429 9.11464115,8.1305803 10.5210663,8.1305803 C11.9209296,8.1305803 13.0648804,9.26202429 13.0648804,10.6504184 C13.0648804,12.0301754 11.9209296,13.1616194 10.5210663,13.1616194 L10.5210663,13.1616194 Z M15.6174436,10.6504184 C15.6174436,7.87147099 13.3273548,5.61074224 10.5210663,5.61074224 C7.70821599,5.61074224 5.41593985,7.87147099 5.41593985,10.6504184 C5.41593985,13.4185695 7.70821599,15.6814575 10.5210663,15.6814575 C13.3273548,15.6814575 15.6174436,13.4185695 15.6174436,10.6504184 L15.6174436,10.6504184 Z" id="Fill-1" fill="#FFFFFF"></path>
                            <path d="M21.9909774,8.13014845 C23.3974026,8.13014845 24.5347915,9.26159244 24.5347915,10.6499865 C24.5347915,12.0319028 23.3974026,13.1611876 21.9909774,13.1611876 C20.5845523,13.1611876 19.4384142,12.0319028 19.4384142,10.6499865 C19.4384142,9.26159244 20.5845523,8.13014845 21.9909774,8.13014845 M21.9909774,15.6810256 C24.8038278,15.6810256 27.0873548,13.4202969 27.0873548,10.6499865 C27.0873548,7.87319838 24.8038278,5.61031039 21.9909774,5.61031039 C19.1781271,5.61031039 16.8946001,7.87319838 16.8946001,10.6499865 C16.8946001,13.4202969 19.1781271,15.6810256 21.9909774,15.6810256" id="Fill-3" fill="#FFFFFF"></path>
                            <path d="M33.4611073,8.13014845 C34.8675325,8.13014845 36.0136705,9.26159244 36.0136705,10.6499865 C36.0136705,12.0319028 34.8675325,13.1611876 33.4611073,13.1611876 C32.0546822,13.1611876 30.9085441,12.0319028 30.9085441,10.6499865 C30.9085441,9.26159244 32.0546822,8.13014845 33.4611073,8.13014845 M33.4611073,15.6810256 C36.2739576,15.6810256 38.5574846,13.4202969 38.5574846,10.6499865 C38.5574846,7.87319838 36.2739576,5.61031039 33.4611073,5.61031039 C30.648257,5.61031039 28.36473,7.87319838 28.36473,10.6499865 C28.36473,13.4202969 30.648257,15.6810256 33.4611073,15.6810256" id="Fill-5" fill="#FFFFFF"></path>
                            <path d="M10.1000137,23.2325506 L8.47267259,23.2325506 C7.57807245,23.2325506 6.84533151,23.9451012 6.84533151,24.8282321 C6.84533151,25.7221592 7.57807245,26.4347099 8.47267259,26.4347099 L10.1000137,26.4347099 C10.9968011,26.4347099 11.7273548,25.7221592 11.7273548,24.8282321 C11.7273548,23.9451012 10.9968011,23.2325506 10.1000137,23.2325506" id="Fill-7" fill="#FFFFFF"></path>
                            <path d="M21.6655092,26.4347099 L55.1769241,26.4347099 C56.0715243,26.4347099 56.8042652,25.7221592 56.8042652,24.8282321 C56.8042652,23.9451012 56.0715243,23.2325506 55.1769241,23.2325506 L21.6655092,23.2325506 C20.7687218,23.2325506 20.0491046,23.9451012 20.0491046,24.8282321 C20.0491046,25.7221592 20.7687218,26.4347099 21.6655092,26.4347099" id="Fill-9" fill="#FFFFFF"></path>
                            <path d="M10.1000137,30.7788934 L8.47267259,30.7788934 C7.57807245,30.7788934 6.84533151,31.491444 6.84533151,32.3853711 C6.84533151,33.268502 7.57807245,33.9810526 8.47267259,33.9810526 L10.1000137,33.9810526 C10.9968011,33.9810526 11.7273548,33.268502 11.7273548,32.3853711 C11.7273548,31.491444 10.9968011,30.7788934 10.1000137,30.7788934" id="Fill-11" fill="#FFFFFF"></path>
                            <path d="M64.9280656,30.797247 L29.7893096,30.797247 C28.8947095,30.797247 28.172905,31.5097976 28.172905,32.4037247 C28.172905,33.2868556 28.8947095,33.9994062 29.7893096,33.9994062 L64.9280656,33.9994062 C65.8226658,33.9994062 66.5444703,33.2868556 66.5444703,32.4037247 C66.5444703,31.5097976 65.8226658,30.797247 64.9280656,30.797247" id="Fill-13" fill="#FFFFFF"></path>
                            <path d="M10.1000137,38.3226451 L8.47267259,38.3226451 C7.57807245,38.3226451 6.84533151,39.0416734 6.84533151,39.9291228 C6.84533151,40.8122537 7.57807245,41.5356005 8.47267259,41.5356005 L10.1000137,41.5356005 C10.9968011,41.5356005 11.7273548,40.8122537 11.7273548,39.9291228 C11.7273548,39.0416734 10.9968011,38.3226451 10.1000137,38.3226451" id="Fill-15" fill="#FFFFFF"></path>
                            <path d="M30.0443472,41.5666937 L57.0573342,41.5666937 C57.9541217,41.5666937 58.6737389,40.8455061 58.6737389,39.9602159 C58.6737389,39.0749258 57.9541217,38.3537382 57.0573342,38.3537382 L30.0443472,38.3537382 C29.1475598,38.3537382 28.4279426,39.0749258 28.4279426,39.9602159 C28.4279426,40.8455061 29.1475598,41.5666937 30.0443472,41.5666937" id="Fill-17" fill="#FFFFFF"></path>
                            <path d="M10.1000137,45.8687719 L8.47267259,45.8687719 C7.57807245,45.8687719 6.84533151,46.5899595 6.84533151,47.4752497 C6.84533151,48.3583806 7.57807245,49.0817274 8.47267259,49.0817274 L10.1000137,49.0817274 C10.9968011,49.0817274 11.7273548,48.3583806 11.7273548,47.4752497 C11.7273548,46.5899595 10.9968011,45.8687719 10.1000137,45.8687719" id="Fill-19" fill="#FFFFFF"></path>
                            <path d="M10.1000137,68.0802699 L8.47267259,68.0802699 C7.57807245,68.0802699 6.84533151,68.7928205 6.84533151,69.6867476 C6.84533151,70.5698785 7.57807245,71.2824291 8.47267259,71.2824291 L10.1000137,71.2824291 C10.9968011,71.2824291 11.7273548,70.5698785 11.7273548,69.6867476 C11.7273548,68.7928205 10.9968011,68.0802699 10.1000137,68.0802699" id="Fill-21" fill="#FFFFFF"></path>
                            <path d="M56.7952973,69.0506343 L29.7910595,69.0506343 C28.894272,69.0506343 28.1724675,69.7631849 28.1724675,70.657112 C28.1724675,71.5402429 28.894272,72.2527935 29.7910595,72.2527935 L56.7952973,72.2527935 C57.6920848,72.2527935 58.411702,71.5402429 58.411702,70.657112 C58.411702,69.7631849 57.6920848,69.0506343 56.7952973,69.0506343" id="Fill-23" fill="#FFFFFF"></path>
                            <path d="M10.1000137,53.4174899 L8.47267259,53.4174899 C7.57807245,53.4174899 6.84533151,54.1386775 6.84533151,55.0239676 C6.84533151,55.9092578 7.57807245,56.6304453 8.47267259,56.6304453 L10.1000137,56.6304453 C10.9968011,56.6304453 11.7273548,55.9092578 11.7273548,55.0239676 C11.7273548,54.1386775 10.9968011,53.4174899 10.1000137,53.4174899" id="Fill-25" fill="#FFFFFF"></path>
                            <path d="M21.6655092,56.6934953 L55.1769241,56.6934953 C56.0715243,56.6934953 56.8042652,55.9809447 56.8042652,55.0870175 C56.8042652,54.2038866 56.0715243,53.491336 55.1769241,53.491336 L21.6655092,53.491336 C20.7687218,53.491336 20.0491046,54.2038866 20.0491046,55.0870175 C20.0491046,55.9809447 20.7687218,56.6934953 21.6655092,56.6934953" id="Fill-27" fill="#FFFFFF"></path>
                            <path d="M10.1000137,60.9687989 L8.47267259,60.9687989 C7.57807245,60.9687989 6.84533151,61.6813495 6.84533151,62.5644804 C6.84533151,63.4584076 7.57807245,64.1709582 8.47267259,64.1709582 L10.1000137,64.1709582 C10.9968011,64.1709582 11.7273548,63.4584076 11.7273548,62.5644804 C11.7273548,61.6813495 10.9968011,60.9687989 10.1000137,60.9687989" id="Fill-29" fill="#FFFFFF"></path>
                            <path d="M63.0885578,61.0510661 L29.7893096,61.0510661 C28.8947095,61.0510661 28.172905,61.7636167 28.172905,62.6575439 C28.172905,63.5406748 28.8947095,64.2532254 29.7893096,64.2532254 L63.0885578,64.2532254 C63.9853452,64.2532254 64.7049624,63.5406748 64.7049624,62.6575439 C64.7049624,61.7636167 63.9853452,61.0510661 63.0885578,61.0510661" id="Fill-31" fill="#FFFFFF"></path>
                            <g id="Group-35" transform="translate(0.000000, 0.009015)">
                                <mask id="mask-2" fill="white">
                                    <use xlink:href="#path-1"></use>
                                </mask>
                                <g id="Clip-34"></g>
                                <path d="M4.72497608,3.29176788 C3.88724539,3.29176788 3.2091866,3.96329285 3.2091866,4.7902834 L3.2091866,74.2013495 C3.2091866,75.0283401 3.88724539,75.699865 4.72497608,75.699865 L75.0374846,75.699865 C75.873028,75.699865 76.5554614,75.0283401 76.5554614,74.2013495 L76.5554614,4.7902834 C76.5554614,3.96329285 75.873028,3.29176788 75.0374846,3.29176788 L4.72497608,3.29176788 Z M75.0374846,78.8653171 L4.72497608,78.8653171 C2.11991798,78.8653171 0.00043745728,76.7730094 0.00043745728,74.2013495 L0.00043745728,4.7902834 C0.00043745728,2.21646424 2.11991798,0.124156545 4.72497608,0.124156545 L75.0374846,0.124156545 C77.6425427,0.124156545 79.7642105,2.21646424 79.7642105,4.7902834 L79.7642105,74.2013495 C79.7642105,76.7730094 77.6425427,78.8653171 75.0374846,78.8653171 L75.0374846,78.8653171 Z" id="Fill-33" fill="#FFFFFF" mask="url(#mask-2)"></path>
                            </g>
                            <mask id="mask-4" fill="white">
                                <use xlink:href="#path-3"></use>
                            </mask>
                            <g id="Clip-37"></g>
                            <polygon id="Fill-36" fill="#FFFFFF" mask="url(#mask-4)" points="1.94231032 19.4789204 77.716473 19.4789204 77.716473 17.1037517 1.94231032 17.1037517"></polygon>
                            <polygon id="Fill-38" fill="#FFFFFF" mask="url(#mask-4)" points="14.9347915 77.4870175 17.0783322 77.4870175 17.0783322 18.1099595 14.9347915 18.1099595"></polygon>
                        </g>
                    </g>
                </g>
            </g>
        </g>
    </g>
</svg>